<svg width="211" height="82" viewBox="0 0 211 82" fill="none" xmlns="http://www.w3.org/2000/svg">
<g clip-path="url(#clip0_1_2)">
<path d="M59.9 81V66.28H64.3C65.78 66.28 67.04 66.5 68.08 66.94C69.12 67.38 69.9533 67.9667 70.58 68.7C71.22 69.4333 71.6867 70.2533 71.98 71.16C72.2733 72.0667 72.42 72.98 72.42 73.9C72.42 74.9933 72.22 75.98 71.82 76.86C71.4333 77.7267 70.9 78.4733 70.22 79.1C69.54 79.7133 68.7533 80.1867 67.86 80.52C66.9667 80.84 66.02 81 65.02 81H59.9ZM62.8 78.2H64.52C65.2533 78.2 65.92 78.1067 66.52 77.92C67.12 77.72 67.6333 77.4333 68.06 77.06C68.5 76.6867 68.8333 76.22 69.06 75.66C69.3 75.0867 69.42 74.4333 69.42 73.7C69.42 72.74 69.26 71.96 68.94 71.36C68.6333 70.7467 68.2467 70.2733 67.78 69.94C67.3267 69.6067 66.86 69.38 66.38 69.26C65.9 69.1267 65.4933 69.06 65.16 69.06H62.8V78.2ZM84.9697 81.24C83.903 81.24 82.9964 81.04 82.2497 80.64C81.5164 80.24 80.9564 79.6867 80.5697 78.98C80.183 78.2733 79.9897 77.46 79.9897 76.54C79.9897 75.66 80.2164 74.8667 80.6697 74.16C81.123 73.4533 81.7297 72.8933 82.4897 72.48C83.2497 72.0533 84.0964 71.84 85.0297 71.84C86.283 71.84 87.3097 72.2067 88.1097 72.94C88.923 73.66 89.4497 74.7067 89.6897 76.08L82.8897 78.24L82.2697 76.72L87.1897 75.06L86.6097 75.32C86.503 74.9733 86.3097 74.6733 86.0297 74.42C85.763 74.1533 85.3564 74.02 84.8097 74.02C84.3964 74.02 84.0297 74.12 83.7097 74.32C83.403 74.5067 83.163 74.78 82.9897 75.14C82.8297 75.4867 82.7497 75.9 82.7497 76.38C82.7497 76.9267 82.8497 77.3867 83.0497 77.76C83.2497 78.12 83.523 78.3933 83.8697 78.58C84.2164 78.7667 84.603 78.86 85.0297 78.86C85.3364 78.86 85.6297 78.8067 85.9097 78.7C86.203 78.5933 86.4897 78.4533 86.7697 78.28L88.0097 80.36C87.543 80.6267 87.0364 80.84 86.4897 81C85.9564 81.16 85.4497 81.24 84.9697 81.24ZM100.064 72.26L100.284 73.82L100.244 73.68C100.551 73.1333 100.984 72.6933 101.544 72.36C102.104 72.0133 102.791 71.84 103.604 71.84C104.431 71.84 105.118 72.0867 105.664 72.58C106.224 73.06 106.511 73.6867 106.524 74.46V81H103.724V75.5C103.711 75.1133 103.604 74.8067 103.404 74.58C103.218 74.34 102.898 74.22 102.444 74.22C102.018 74.22 101.644 74.36 101.324 74.64C101.004 74.92 100.758 75.3 100.584 75.78C100.411 76.26 100.324 76.8133 100.324 77.44V81H97.5244V72.26H100.064ZM116.019 68.42H118.819V72.22H120.939V74.4H118.819V81H116.019V74.4H114.659V72.22H116.019V68.42ZM132.55 81.24C131.737 81.24 130.997 81.08 130.33 80.76C129.677 80.4267 129.157 79.92 128.77 79.24C128.384 78.56 128.19 77.6933 128.19 76.64C128.19 75.6533 128.39 74.8 128.79 74.08C129.19 73.36 129.717 72.8067 130.37 72.42C131.024 72.02 131.717 71.82 132.45 71.82C133.317 71.82 133.97 71.9667 134.41 72.26C134.864 72.54 135.237 72.8533 135.53 73.2L135.41 73.54L135.67 72.26H138.27V81H135.47V79.1L135.69 79.7C135.664 79.7 135.584 79.78 135.45 79.94C135.317 80.0867 135.117 80.2667 134.85 80.48C134.597 80.68 134.277 80.8533 133.89 81C133.517 81.16 133.07 81.24 132.55 81.24ZM133.35 78.96C133.684 78.96 133.984 78.9133 134.25 78.82C134.517 78.7133 134.75 78.5667 134.95 78.38C135.15 78.18 135.324 77.9333 135.47 77.64V75.5C135.364 75.2067 135.204 74.96 134.99 74.76C134.777 74.5467 134.524 74.3867 134.23 74.28C133.937 74.16 133.61 74.1 133.25 74.1C132.85 74.1 132.477 74.2067 132.13 74.42C131.797 74.62 131.53 74.9 131.33 75.26C131.13 75.62 131.03 76.0333 131.03 76.5C131.03 76.9667 131.137 77.3867 131.35 77.76C131.564 78.1333 131.844 78.4267 132.19 78.64C132.55 78.8533 132.937 78.96 133.35 78.96ZM146.956 65.22H149.756V81H146.956V65.22ZM170.743 65.22H173.543V81H170.743V65.22ZM185.907 81.24C185.093 81.24 184.353 81.08 183.687 80.76C183.033 80.4267 182.513 79.92 182.127 79.24C181.74 78.56 181.547 77.6933 181.547 76.64C181.547 75.6533 181.747 74.8 182.147 74.08C182.547 73.36 183.073 72.8067 183.727 72.42C184.38 72.02 185.073 71.82 185.807 71.82C186.673 71.82 187.327 71.9667 187.767 72.26C188.22 72.54 188.593 72.8533 188.887 73.2L188.767 73.54L189.027 72.26H191.627V81H188.827V79.1L189.047 79.7C189.02 79.7 188.94 79.78 188.807 79.94C188.673 80.0867 188.473 80.2667 188.207 80.48C187.953 80.68 187.633 80.8533 187.247 81C186.873 81.16 186.427 81.24 185.907 81.24ZM186.707 78.96C187.04 78.96 187.34 78.9133 187.607 78.82C187.873 78.7133 188.107 78.5667 188.307 78.38C188.507 78.18 188.68 77.9333 188.827 77.64V75.5C188.72 75.2067 188.56 74.96 188.347 74.76C188.133 74.5467 187.88 74.3867 187.587 74.28C187.293 74.16 186.967 74.1 186.607 74.1C186.207 74.1 185.833 74.2067 185.487 74.42C185.153 74.62 184.887 74.9 184.687 75.26C184.487 75.62 184.387 76.0333 184.387 76.5C184.387 76.9667 184.493 77.3867 184.707 77.76C184.92 78.1333 185.2 78.4267 185.547 78.64C185.907 78.8533 186.293 78.96 186.707 78.96ZM206.052 81.24C205.319 81.24 204.699 81.12 204.192 80.88C203.699 80.6267 203.265 80.3 202.892 79.9L203.112 79.3V81H200.312V65.22H203.092V73.76V72.86C203.439 72.5667 203.899 72.32 204.472 72.12C205.045 71.92 205.699 71.82 206.432 71.82C207.192 71.82 207.885 72 208.512 72.36C209.139 72.72 209.639 73.2467 210.012 73.94C210.399 74.62 210.592 75.4533 210.592 76.44C210.592 77.4267 210.379 78.28 209.952 79C209.539 79.72 208.985 80.2733 208.292 80.66C207.599 81.0467 206.852 81.24 206.052 81.24ZM205.432 78.88C205.845 78.88 206.225 78.7733 206.572 78.56C206.932 78.3467 207.219 78.0533 207.432 77.68C207.645 77.3067 207.752 76.8867 207.752 76.42C207.752 75.9533 207.645 75.54 207.432 75.18C207.219 74.82 206.932 74.54 206.572 74.34C206.225 74.1267 205.845 74.02 205.432 74.02C205.072 74.02 204.732 74.08 204.412 74.2C204.105 74.3067 203.839 74.4667 203.612 74.68C203.399 74.88 203.232 75.1267 203.112 75.42V77.56C203.272 77.8533 203.459 78.1 203.672 78.3C203.899 78.4867 204.159 78.6333 204.452 78.74C204.745 78.8333 205.072 78.88 205.432 78.88Z" fill="#eef2ff"/>
<path d="M78.88 54.56C78.56 54.8267 77.96 55.1867 77.08 55.64C76.2267 56.0933 75.1733 56.4933 73.92 56.84C72.6667 57.1867 71.28 57.3467 69.76 57.32C67.44 57.2667 65.36 56.8533 63.52 56.08C61.7067 55.28 60.16 54.2 58.88 52.84C57.6267 51.48 56.6667 49.92 56 48.16C55.3333 46.4 55 44.52 55 42.52C55 40.28 55.3333 38.2267 56 36.36C56.6933 34.4933 57.6667 32.88 58.92 31.52C60.2 30.16 61.72 29.1067 63.48 28.36C65.24 27.6133 67.1867 27.24 69.32 27.24C71.2933 27.24 73.04 27.5067 74.56 28.04C76.08 28.5733 77.32 29.1467 78.28 29.76L76 35.24C75.3333 34.7333 74.44 34.2133 73.32 33.68C72.2267 33.12 70.96 32.84 69.52 32.84C68.4 32.84 67.32 33.08 66.28 33.56C65.2667 34.0133 64.36 34.6667 63.56 35.52C62.7867 36.3733 62.1733 37.3733 61.72 38.52C61.2667 39.64 61.04 40.8667 61.04 42.2C61.04 43.6133 61.24 44.9067 61.64 46.08C62.0667 47.2533 62.6667 48.2667 63.44 49.12C64.2133 49.9467 65.1333 50.5867 66.2 51.04C67.2933 51.4933 68.52 51.72 69.88 51.72C71.4533 51.72 72.8 51.4667 73.92 50.96C75.04 50.4533 75.8933 49.92 76.48 49.36L78.88 54.56ZM85.3706 57V25.44H90.8506V43.04L90.8106 42.36C91.424 41.2667 92.2906 40.3867 93.4106 39.72C94.5306 39.0267 95.904 38.68 97.5306 38.68C99.184 38.68 100.557 39.1733 101.651 40.16C102.771 41.12 103.344 42.3733 103.371 43.92V57H97.7706V46C97.744 45.2267 97.5306 44.6133 97.1306 44.16C96.7573 43.68 96.1173 43.44 95.2106 43.44C94.3573 43.44 93.6106 43.72 92.9706 44.28C92.3306 44.84 91.8373 45.6 91.4906 46.56C91.144 47.52 90.9706 48.6267 90.9706 49.88V57H85.3706ZM115.761 39.52L116.281 44.32L116.161 43.6C116.667 42.56 117.361 41.68 118.241 40.96C119.121 40.2133 119.987 39.64 120.841 39.24C121.721 38.84 122.387 38.64 122.841 38.64L122.561 44.24C121.254 44.08 120.134 44.2933 119.201 44.88C118.267 45.4667 117.547 46.24 117.041 47.2C116.534 48.16 116.281 49.1467 116.281 50.16V57H110.721V39.52H115.761ZM126.586 48.04C126.586 46.2533 126.999 44.6533 127.826 43.24C128.679 41.8267 129.866 40.72 131.386 39.92C132.906 39.0933 134.652 38.68 136.626 38.68C138.626 38.68 140.359 39.0933 141.826 39.92C143.292 40.72 144.412 41.8267 145.186 43.24C145.986 44.6533 146.386 46.2533 146.386 48.04C146.386 49.8267 145.986 51.44 145.186 52.88C144.412 54.2933 143.292 55.4133 141.826 56.24C140.359 57.0667 138.599 57.48 136.546 57.48C134.626 57.48 132.906 57.1067 131.386 56.36C129.892 55.6133 128.719 54.5333 127.866 53.12C127.012 51.7067 126.586 50.0133 126.586 48.04ZM132.226 48.08C132.226 48.9867 132.412 49.8133 132.786 50.56C133.159 51.28 133.666 51.8533 134.306 52.28C134.946 52.7067 135.666 52.92 136.466 52.92C137.346 52.92 138.106 52.7067 138.746 52.28C139.386 51.8533 139.879 51.28 140.226 50.56C140.572 49.8133 140.746 48.9867 140.746 48.08C140.746 47.1467 140.572 46.32 140.226 45.6C139.879 44.88 139.386 44.3067 138.746 43.88C138.106 43.4533 137.346 43.24 136.466 43.24C135.666 43.24 134.946 43.4533 134.306 43.88C133.666 44.3067 133.159 44.88 132.786 45.6C132.412 46.32 132.226 47.1467 132.226 48.08ZM157.477 39.52L157.917 42.6L157.837 42.36C158.531 41.1867 159.397 40.28 160.437 39.64C161.477 38.9733 162.731 38.64 164.197 38.64C165.157 38.64 165.997 38.7733 166.717 39.04C167.464 39.3067 168.091 39.7067 168.597 40.24C169.104 40.7467 169.451 41.4133 169.637 42.24L169.437 42.28C170.184 41.1867 171.077 40.3067 172.117 39.64C173.184 38.9733 174.291 38.64 175.437 38.64C177.171 38.64 178.544 39.1333 179.557 40.12C180.597 41.08 181.131 42.3333 181.157 43.88V57H175.597V46.2C175.571 45.4267 175.451 44.8 175.237 44.32C175.024 43.8133 174.531 43.5333 173.757 43.48C172.851 43.48 172.077 43.8 171.437 44.44C170.824 45.0533 170.357 45.8533 170.037 46.84C169.744 47.8 169.597 48.8 169.597 49.84V57H163.997V46.2C163.971 45.4267 163.824 44.8 163.557 44.32C163.317 43.8133 162.811 43.5333 162.037 43.48C161.157 43.48 160.411 43.8 159.797 44.44C159.211 45.0533 158.757 45.84 158.437 46.8C158.144 47.76 157.997 48.7467 157.997 49.76V57H152.397V39.52H157.477ZM195.888 57.48C194.262 57.48 192.782 57.16 191.448 56.52C190.142 55.8533 189.102 54.84 188.328 53.48C187.555 52.12 187.168 50.3867 187.168 48.28C187.168 46.3067 187.568 44.6 188.368 43.16C189.168 41.72 190.222 40.6133 191.528 39.84C192.835 39.04 194.222 38.64 195.688 38.64C197.422 38.64 198.728 38.9333 199.608 39.52C200.515 40.08 201.262 40.7067 201.848 41.4L201.608 42.08L202.128 39.52H207.328V57H201.728V53.2L202.168 54.4C202.115 54.4 201.955 54.56 201.688 54.88C201.422 55.1733 201.022 55.5333 200.488 55.96C199.982 56.36 199.342 56.7067 198.568 57C197.822 57.32 196.928 57.48 195.888 57.48ZM197.488 52.92C198.155 52.92 198.755 52.8267 199.288 52.64C199.822 52.4267 200.288 52.1333 200.688 51.76C201.088 51.36 201.435 50.8667 201.728 50.28V46C201.515 45.4133 201.195 44.92 200.768 44.52C200.342 44.0933 199.835 43.7733 199.248 43.56C198.662 43.32 198.008 43.2 197.288 43.2C196.488 43.2 195.742 43.4133 195.048 43.84C194.382 44.24 193.848 44.8 193.448 45.52C193.048 46.24 192.848 47.0667 192.848 48C192.848 48.9333 193.062 49.7733 193.488 50.52C193.915 51.2667 194.475 51.8533 195.168 52.28C195.888 52.7067 196.662 52.92 197.488 52.92Z" fill="#4F46ff"/>
<path d="M39.9069 0.0366974H46.4269L47.6571 0.403642L49.8714 1.99374L50.6095 2.60531L51.4706 3.58383L52.3317 4.80698L53.3159 6.64171L54.5461 10.5558L55.0381 13.2467L55.1611 14.1029V16.7939L54.7921 20.0964L54.054 24.989L53.4389 29.1477L52.7008 32.9394L52.0857 36.4866L51.3476 39.1775L50.8555 41.0122L50.2404 43.8255L49.2563 46.8834L48.6412 49.452L47.6571 52.0206L46.7959 54.9561L46.1809 56.1793L45.1967 58.8702L43.8435 61.5612L42.7364 63.8851L41.2601 66.4538L40.8911 67.1876L42.4903 67.5546L43.2284 68.0439L43.3514 69.1447L42.7364 69.6339L41.5062 70.1232L39.5379 70.6125L37.6926 70.8571L30.6806 71.224H21.9464L16.5336 70.9794L13.4581 70.6125L11.2438 70.1232L10.1367 69.5116L9.39855 68.5331L10.1367 67.9215L11.3668 67.5546L12.1049 67.4323L10.9978 66.2091L9.64459 64.619L8.53743 62.9066L6.56914 59.4818L4.72388 55.2008L3.86275 52.6322L3.24766 50.9197L1.4024 43.5808L1.27938 42.48L1.77145 42.7246L3.00163 44.0701V44.3147H3.24766V44.5594L3.73974 44.804L4.72388 45.6602L6.56914 46.8834L8.90648 47.9842L10.5057 48.4734L11.3668 48.5958H20.2241L22.1924 48.3511L21.9464 49.5743L20.7162 53.2437L19.24 63.5182L18.9939 66.3314L19.24 66.2091L23.0535 66.0868H33.264L33.018 64.8637L32.4029 63.5182L31.6648 61.3165L31.1727 58.381L30.6806 56.3016L29.9425 53.733L29.4504 51.8983L27.9742 48.7181L26.8671 46.761V46.5164L29.6965 45.7825L31.5417 45.0486L32.7719 44.4371L34.8632 43.4585L37.2006 41.9908L38.5538 41.0122L39.9069 39.9114L41.6292 38.4436L42.3673 37.4651L42.4903 36.7312L41.9982 36.9758L40.8911 37.9544L38.9228 39.4221L36.7085 40.8899L35.1093 41.8684L31.6648 43.4585L29.8195 44.0701L23.0535 45.9048L21.3313 46.1495H12.351L10.3827 45.6602L7.30725 44.4371L5.46198 43.4585L3.73974 41.9908L2.75559 40.6453L1.77145 38.8106L1.4024 37.832L1.27938 37.0982V33.551L1.77145 31.594L2.75559 29.3923L3.98577 27.0683L5.33897 25.1113L6.32311 23.8881L7.79932 22.1757L10.2597 19.7294L11.2438 18.8732L12.843 17.5277L14.4423 16.3046L16.4106 14.8368L18.5019 13.4914L21.0852 11.9013L23.0535 10.8004L25.1448 9.8219L26.8671 8.84338L29.9425 7.98717L32.4029 7.25328L34.9862 6.76402L36.5855 6.64171H38.5538L40.522 7.00865L41.7522 7.49791L42.9824 8.59875L43.4745 9.57727V11.045L42.8594 12.8798L41.8752 14.3476L40.153 16.1823L39.2919 17.0385L37.5696 18.384L35.9704 19.6071L33.51 21.1972L31.7878 22.1757L29.5735 23.3989L27.8512 24.2551L25.7599 25.1113L24.4067 25.7229L23.0535 26.2121L22.4384 26.3344L18.5019 26.4567L18.7479 26.946L19.9781 27.4353L21.8233 27.6799H23.6686L25.7599 27.4353L30.9267 25.9675L36.8315 23.5212L40.276 21.6865L42.2443 20.4633L43.7205 19.3625L45.5658 17.7724L46.5499 16.7939L47.7801 15.2038L48.7642 13.4914L49.0103 12.0236V10.3112L48.7642 9.08801L48.0261 7.98717L47.042 7.13097L45.0737 6.15245L43.2284 5.54087L41.3832 5.29624H38.4307L36.3394 5.54087L31.1727 6.76402L28.7123 7.49791L28.0972 7.62023L28.3433 6.88634L30.0655 5.54087L31.5417 4.44004L34.1251 2.72763L36.7085 1.25985L38.7998 0.281327L39.9069 0.0366974Z" fill="#eef2ff"/>
<path d="M11.6129 2.483H13.2121L14.9344 2.84995L17.2717 3.82847L18.6249 4.56236L20.2241 5.90782L21.4543 7.00866L23.2996 8.9657L23.7916 9.57727L23.2996 9.94422L21.0852 10.9227L18.7479 12.2682L16.0415 13.9806L13.9502 15.4484L12.351 16.6715L10.7518 18.017L9.39856 19.1178L6.69217 21.8088L5.58501 23.1542L4.35483 24.7443L2.63258 27.313L1.27939 29.7593L0.664297 31.9609H0.295244L0.172226 31.3494V24.0104L0.295244 18.1393L0.664297 15.8153L1.52542 12.3905L2.38655 10.4335L3.4937 8.35412L4.60086 6.88634L5.70802 5.66319L6.44613 4.80699L7.67631 3.95078L9.64459 2.97226L11.6129 2.483Z" fill="#eef2ff"/>
</g>
<defs>
<clipPath id="clip0_1_2">
<rect width="211" height="82" fill="white"/>
</clipPath>
</defs>
</svg>
