<svg xmlns="http://www.w3.org/2000/svg" version="1.1" viewBox="0 0 2048 745" width="1280" height="1280">
<path transform="translate(0)" d="m0 0h2048v745h-2048z" fill="#FEFEFE"/>
<path transform="translate(462,40)" d="m0 0h53l10 3 18 13 6 5 7 8 7 10 8 15 10 32 4 22 1 7v22l-3 27-6 40-5 34-6 31-5 29-6 22-4 15-5 23-8 25-5 21-8 21-7 24-5 10-8 22-11 22-9 19-12 21-3 6 13 3 6 4 1 9-5 4-10 4-16 4-15 2-57 3h-71l-44-2-25-3-18-4-9-5-6-8 6-5 10-3 6-1-9-10-11-13-9-14-16-28-15-35-7-21-5-14-15-60-1-9 4 2 10 11v2h2v2l4 2 8 7 15 10 19 9 13 4 7 1h72l16-2-2 10-10 30-12 84-2 23 2-1 31-1h83l-2-10-5-11-6-18-4-24-4-17-6-21-4-15-12-26-9-16v-2l23-6 15-6 10-5 17-8 19-12 11-8 11-9 14-12 6-8 1-6-4 2-9 8-16 12-18 12-13 8-28 13-15 5-55 15-14 2h-73l-16-4-25-10-15-8-14-12-8-11-8-15-3-8-1-6v-29l4-16 8-18 10-19 11-16 8-10 12-14 20-20 8-7 13-11 13-10 16-12 17-11 21-13 16-9 17-8 14-8 25-7 20-6 21-4 13-1h16l16 3 10 4 10 9 4 8v12l-5 15-8 12-14 15-7 7-14 11-13 10-20 13-14 8-18 10-14 7-17 7-11 5-11 4-5 1-32 1 2 4 10 4 15 2h15l17-2 42-12 48-20 28-15 16-10 12-9 15-13 8-8 10-13 8-14 2-12v-14l-2-10-6-9-8-7-16-8-15-5-15-2h-24l-17 2-42 10-20 6-5 1 2-6 14-11 12-9 21-14 21-12 17-8z" fill="#010101"/>
<path transform="translate(1473,333)" d="m0 0h11l13 3 11 6 6 5 10 15 3-1 7-9 10-7 16-8 9-3 5-1h11l14 3 12 6 8 8 5 10 2 9 2 21v119h-66l-1-107-2-9-9-8-9-1-10 6-2 2-1 117h-67l-1-112-6-8-8-5h-6l-8 7-7 8-1 11v98l-1 1h-64l-1-169h66v20l8-6 7-6 16-9 9-4z" fill="#010101"/>
<path transform="translate(792,252)" d="m0 0h65v104l1 7 15-15 16-9 12-4 5-1h14l12 3 13 7 9 9 7 14v142h-64l-1-110-4-7-9-6-4-2-7 1-10 9-4 8-1 107h-64l-1-30z" fill="#010101"/>
<path transform="translate(1721,333)" d="m0 0 11 1 10 3 11 6 15 12v2l4 2 2 2v-21h65v168l-1 1h-63v-21l-7 3-5 5-6 8-12 6-7 2h-27l-10-3-10-5-10-9-7-10-5-13-6-24-3-18v-16l4-22 7-23 6-10 9-10 9-7 13-6z" fill="#010101"/>
<path transform="translate(1226,333)" d="m0 0h17l18 3 17 6 14 7 10 9 7 8 11 21 2 5 1 25v16l-1 25-5 12-8 13-6 7-8 7-14 10-23 5-25 2-25-3-16-5-9-5-14-12-10-12-5-9-5-26-1-7v-18l5-29 5-14 8-12 9-10 11-7 17-7 16-4z" fill="#010101"/>
<path transform="translate(715,256)" d="m0 0h11l31 4 1 1 1 32v29l-7-1-12-3-7-1h-16l-12 3-16 9-8 7-11 21-4 8-1 7v25l2 12 6 13 7 12 5 5 9 8 12 6 9 1h19l25-1v55l-6 2-11 2-18 2h-7l-5-1-20-2-21-4-16-8-16-10-15-14-9-11-8-15-6-11-4-20-3-12-1-8v-25l3-19 5-21 7-13 11-16 12-13 7-7 13-10 11-4 16-7 21-5z" fill="#010101"/>
<path transform="translate(232,60)" d="m0 0h13l14 3 19 8 11 6 13 11 10 9 15 16 4 5-4 3-18 8-19 11-22 14-17 12-13 10-13 11-11 9-22 22-9 11-10 13-14 21-11 20-5 18h-3l-1-5v-60l1-48 3-19 7-28 7-16 9-17 9-12 9-10 6-7 10-7 16-8z" fill="#010101"/>
<path transform="translate(1111,336)" d="m0 0h8l7 1 1 1v50h-31l-9 3-8 6-5 8-3 11-1 13-1 80h-64l-1-169h61l1 3v25l5-4 8-12 8-7 14-7z" fill="#010101"/>
<path transform="translate(626,579)" d="m0 0h41l18 3 14 7 8 9 6 10 2 6 1 16 3 8-1 11-2 9-2 16-6 10-5 5-9 8-12 6-16 4-10 1h-29l-1-88z" fill="#010101"/>
<path transform="translate(1763,569)" d="m0 0h31l4 1v52l11-5 5-1h13l10 5 6 7 6 12 3 12v18l-3 12-7 14-6 9-5 3-5 1h-15l-4-2-2-6h-6l-1 6-3 1h-31l-1-82z" fill="#010101"/>
<path transform="translate(1186,616)" d="m0 0h14l17 3 34 1 1 3v84l-4 1h-28l-2-1-1-6-5 2-6 5-5 1h-9l-9-3-5-4-8-11-3-7-1-12v-27l2-9 7-11 9-8z" fill="#010101"/>
<path transform="translate(1635,616)" d="m0 0h14l14 4h33l1 1v86l-1 1h-28l-2-5v-5l-5 2-6 7-6 2h-9l-8-3-8-7-6-10-3-14v-31l3-12 4-8 6-5z" fill="#010101"/>
<path transform="translate(967,616)" d="m0 0h13l9 2 6 7 3 6 1 27v49l-1 1h-33l-1-62-16-2v63l-3 1h-28l-1-88 2-1h28l3 6 5-2 3-5z" fill="#010101"/>
<path transform="translate(804,616)" d="m0 0h18l13 3 9 6 5 6 4 8 4 20v10l-1 1h-50l2 13 3 3h7l5-5 2-3 3-1h26l-4 12-6 10-9 7-11 3h-16l-10-3-9-6-8-10-4-11-2-12v-11l4-20 6-9 8-7z" fill="#010101"/>
<path transform="translate(1517,569)" d="m0 0h35l1 2-1 136-5 1h-29l-1-35z" fill="#010101"/>
<path transform="translate(1318,569)" d="m0 0h31l1 2v136l-3 1h-28l-1-1z" fill="#010101"/>
<path transform="translate(1065,596)" d="m0 0h34l1 1v22l9 1 5 3-1 17-9 1h-4v66l-6 1h-28l-1-1v-40l1-27h-10l-2-7 1-10 1-2 9-3z" fill="#010101"/>
<path transform="translate(1739,383)" d="m0 0h15l7 3 5 4 6 12 3 14v15l-4 17-7 11-6 5-2 1h-15l-6-4-6-9-4-11-2-14 1-18 5-13 6-11z" fill="#FEFEFE"/>
<path transform="translate(1230,383)" d="m0 0h11l10 4 6 7 1 2v57l-7 8-9 4-10 1-10-4-5-8-3-10-3-13v-9l5-25 5-10 5-3z" fill="#FEFEFE"/>
<path transform="translate(658,606)" d="m0 0h8l7 3 6 7 3 9 2 11v14l-4 16-5 6-9 4-8 1-1-1v-64z" fill="#FEFEFE"/>
<path transform="translate(1651,640)" d="m0 0 8 1 6 5 2 8v14l-4 10-7 4-10-5-4-8v-14l4-10z" fill="#FEFEFE"/>
<path transform="translate(1802,640)" d="m0 0 9 1 5 5 3 9v15l-4 7-5 4h-7l-5-4-1-8v-17l2-11z" fill="#FEFEFE"/>
<path transform="translate(1203,641)" d="m0 0h12l2 1 1 5v24l-2 7-4 3-8-1-5-5-2-5v-19l3-7z" fill="#FEFEFE"/>
<path transform="translate(807,636)" d="m0 0h10l8 4 1 4v9l-2 1h-12l-6-1-1-3 1-12z" fill="#FEFEFE"/>
</svg>